<svg xmlns="http://www.w3.org/2000/svg" viewBox="0 0 32 32">
  <!-- Dark background matching --dark: #1C1A10 -->
  <rect width="32" height="32" rx="7" fill="#1C1A10"/>
  <!-- Main kernel body: warm creamy amber #D4A840 -->
  <path d="M16 5 C12.2 5 9.5 9 9.5 15 C9.5 21.5 12.2 27 16 27 C19.8 27 22.5 21.5 22.5 15 C22.5 9 19.8 5 16 5Z" fill="#D4A840"/>
  <!-- Highlight layer: lighter golden #F5D070 at ~45% opacity -->
  <path d="M16 7 C13.5 7 11.8 10.5 11.8 15 C11.8 20 13.5 25 16 25 C18.5 25 20.2 20 20.2 15 C20.2 10.5 18.5 7 16 7Z" fill="#F5D070" opacity="0.42"/>
  <!-- Dark crease groove down centre -->
  <line x1="16" y1="6.5" x2="16" y2="25.5" stroke="#8A6018" stroke-width="1.4" stroke-linecap="round" opacity="0.7"/>
  <!-- Germ spot at base: pale cream #F0D898 -->
  <ellipse cx="16" cy="23" rx="2.8" ry="1.4" fill="#F0D898" opacity="0.6"/>
</svg>
